<mxfile host="app.diagrams.net" modified="2022-08-02T04:20:56.300Z" agent="5.0 (Macintosh)" etag="rNcq-6zxOdcZIWbm_mDN" version="20.2.2" type="github">
  <diagram id="PuQnvn29BVy2Np9aTlQ6" name="Page-1">
    <mxGraphModel dx="1191" dy="776" grid="1" gridSize="10" guides="1" tooltips="1" connect="1" arrows="1" fold="1" page="1" pageScale="1" pageWidth="1169" pageHeight="827" math="0" shadow="0">
      <root>
        <mxCell id="0" />
        <mxCell id="1" parent="0" />
        <mxCell id="wzGeyBrV-l04SElcSdZf-14" style="edgeStyle=orthogonalEdgeStyle;rounded=0;orthogonalLoop=1;jettySize=auto;html=1;entryX=0.5;entryY=0;entryDx=0;entryDy=0;" edge="1" parent="1" source="wzGeyBrV-l04SElcSdZf-1" target="wzGeyBrV-l04SElcSdZf-2">
          <mxGeometry relative="1" as="geometry" />
        </mxCell>
        <mxCell id="wzGeyBrV-l04SElcSdZf-1" value="" style="rounded=0;whiteSpace=wrap;html=1;" vertex="1" parent="1">
          <mxGeometry x="80" y="80" width="120" height="60" as="geometry" />
        </mxCell>
        <mxCell id="wzGeyBrV-l04SElcSdZf-15" style="edgeStyle=orthogonalEdgeStyle;rounded=0;orthogonalLoop=1;jettySize=auto;html=1;exitX=0.5;exitY=1;exitDx=0;exitDy=0;entryX=0.5;entryY=0;entryDx=0;entryDy=0;" edge="1" parent="1" source="wzGeyBrV-l04SElcSdZf-2" target="wzGeyBrV-l04SElcSdZf-3">
          <mxGeometry relative="1" as="geometry" />
        </mxCell>
        <mxCell id="wzGeyBrV-l04SElcSdZf-28" value="" style="edgeStyle=orthogonalEdgeStyle;rounded=0;orthogonalLoop=1;jettySize=auto;html=1;" edge="1" parent="1" source="wzGeyBrV-l04SElcSdZf-2" target="wzGeyBrV-l04SElcSdZf-27">
          <mxGeometry relative="1" as="geometry" />
        </mxCell>
        <mxCell id="wzGeyBrV-l04SElcSdZf-2" value="" style="rounded=0;whiteSpace=wrap;html=1;" vertex="1" parent="1">
          <mxGeometry x="80" y="209" width="120" height="60" as="geometry" />
        </mxCell>
        <mxCell id="wzGeyBrV-l04SElcSdZf-16" style="edgeStyle=orthogonalEdgeStyle;rounded=0;orthogonalLoop=1;jettySize=auto;html=1;exitX=0.5;exitY=1;exitDx=0;exitDy=0;entryX=0.5;entryY=0;entryDx=0;entryDy=0;" edge="1" parent="1" source="wzGeyBrV-l04SElcSdZf-3" target="wzGeyBrV-l04SElcSdZf-4">
          <mxGeometry relative="1" as="geometry" />
        </mxCell>
        <mxCell id="wzGeyBrV-l04SElcSdZf-39" value="" style="edgeStyle=orthogonalEdgeStyle;rounded=0;orthogonalLoop=1;jettySize=auto;html=1;" edge="1" parent="1" source="wzGeyBrV-l04SElcSdZf-3" target="wzGeyBrV-l04SElcSdZf-38">
          <mxGeometry relative="1" as="geometry" />
        </mxCell>
        <mxCell id="wzGeyBrV-l04SElcSdZf-3" value="" style="rounded=0;whiteSpace=wrap;html=1;" vertex="1" parent="1">
          <mxGeometry x="80" y="446" width="120" height="60" as="geometry" />
        </mxCell>
        <mxCell id="wzGeyBrV-l04SElcSdZf-17" style="edgeStyle=orthogonalEdgeStyle;rounded=0;orthogonalLoop=1;jettySize=auto;html=1;exitX=1;exitY=0.5;exitDx=0;exitDy=0;entryX=0;entryY=0.5;entryDx=0;entryDy=0;" edge="1" parent="1" source="wzGeyBrV-l04SElcSdZf-4" target="wzGeyBrV-l04SElcSdZf-6">
          <mxGeometry relative="1" as="geometry" />
        </mxCell>
        <mxCell id="wzGeyBrV-l04SElcSdZf-4" value="" style="rounded=0;whiteSpace=wrap;html=1;" vertex="1" parent="1">
          <mxGeometry x="80" y="660" width="120" height="60" as="geometry" />
        </mxCell>
        <mxCell id="wzGeyBrV-l04SElcSdZf-5" value="" style="rounded=0;whiteSpace=wrap;html=1;" vertex="1" parent="1">
          <mxGeometry x="80" y="750" width="120" height="60" as="geometry" />
        </mxCell>
        <mxCell id="wzGeyBrV-l04SElcSdZf-18" style="edgeStyle=orthogonalEdgeStyle;rounded=0;orthogonalLoop=1;jettySize=auto;html=1;exitX=1;exitY=0.5;exitDx=0;exitDy=0;entryX=0;entryY=0.5;entryDx=0;entryDy=0;" edge="1" parent="1" source="wzGeyBrV-l04SElcSdZf-6" target="wzGeyBrV-l04SElcSdZf-7">
          <mxGeometry relative="1" as="geometry" />
        </mxCell>
        <mxCell id="wzGeyBrV-l04SElcSdZf-6" value="" style="rounded=0;whiteSpace=wrap;html=1;" vertex="1" parent="1">
          <mxGeometry x="320" y="660" width="120" height="60" as="geometry" />
        </mxCell>
        <mxCell id="wzGeyBrV-l04SElcSdZf-19" value="" style="edgeStyle=orthogonalEdgeStyle;rounded=0;orthogonalLoop=1;jettySize=auto;html=1;" edge="1" parent="1" source="wzGeyBrV-l04SElcSdZf-7" target="wzGeyBrV-l04SElcSdZf-8">
          <mxGeometry relative="1" as="geometry" />
        </mxCell>
        <mxCell id="wzGeyBrV-l04SElcSdZf-7" value="" style="rounded=0;whiteSpace=wrap;html=1;" vertex="1" parent="1">
          <mxGeometry x="480" y="660" width="120" height="60" as="geometry" />
        </mxCell>
        <mxCell id="wzGeyBrV-l04SElcSdZf-20" value="" style="edgeStyle=orthogonalEdgeStyle;rounded=0;orthogonalLoop=1;jettySize=auto;html=1;" edge="1" parent="1" source="wzGeyBrV-l04SElcSdZf-8" target="wzGeyBrV-l04SElcSdZf-11">
          <mxGeometry relative="1" as="geometry" />
        </mxCell>
        <mxCell id="wzGeyBrV-l04SElcSdZf-8" value="" style="rounded=0;whiteSpace=wrap;html=1;" vertex="1" parent="1">
          <mxGeometry x="650" y="660" width="120" height="60" as="geometry" />
        </mxCell>
        <mxCell id="wzGeyBrV-l04SElcSdZf-41" value="" style="edgeStyle=orthogonalEdgeStyle;rounded=0;orthogonalLoop=1;jettySize=auto;html=1;" edge="1" parent="1" source="wzGeyBrV-l04SElcSdZf-9" target="wzGeyBrV-l04SElcSdZf-40">
          <mxGeometry relative="1" as="geometry" />
        </mxCell>
        <mxCell id="wzGeyBrV-l04SElcSdZf-9" value="" style="rounded=0;whiteSpace=wrap;html=1;" vertex="1" parent="1">
          <mxGeometry x="320" y="382" width="120" height="60" as="geometry" />
        </mxCell>
        <mxCell id="wzGeyBrV-l04SElcSdZf-44" value="" style="edgeStyle=orthogonalEdgeStyle;rounded=0;orthogonalLoop=1;jettySize=auto;html=1;" edge="1" parent="1" source="wzGeyBrV-l04SElcSdZf-10" target="wzGeyBrV-l04SElcSdZf-42">
          <mxGeometry relative="1" as="geometry" />
        </mxCell>
        <mxCell id="wzGeyBrV-l04SElcSdZf-10" value="" style="rounded=0;whiteSpace=wrap;html=1;" vertex="1" parent="1">
          <mxGeometry x="320" y="510" width="120" height="60" as="geometry" />
        </mxCell>
        <mxCell id="wzGeyBrV-l04SElcSdZf-11" value="" style="rounded=0;whiteSpace=wrap;html=1;" vertex="1" parent="1">
          <mxGeometry x="800" y="660" width="120" height="60" as="geometry" />
        </mxCell>
        <mxCell id="wzGeyBrV-l04SElcSdZf-12" value="&lt;div&gt;Autobackup &lt;br&gt;&lt;/div&gt;&lt;div&gt;Main backup process&lt;/div&gt;" style="text;html=1;align=center;verticalAlign=middle;resizable=0;points=[];autosize=1;strokeColor=none;fillColor=none;" vertex="1" parent="1">
          <mxGeometry x="70" y="90" width="140" height="40" as="geometry" />
        </mxCell>
        <mxCell id="wzGeyBrV-l04SElcSdZf-31" value="" style="edgeStyle=orthogonalEdgeStyle;rounded=0;orthogonalLoop=1;jettySize=auto;html=1;" edge="1" parent="1" source="wzGeyBrV-l04SElcSdZf-22" target="wzGeyBrV-l04SElcSdZf-29">
          <mxGeometry relative="1" as="geometry" />
        </mxCell>
        <mxCell id="wzGeyBrV-l04SElcSdZf-22" value="" style="rhombus;whiteSpace=wrap;html=1;" vertex="1" parent="1">
          <mxGeometry x="320" y="150" width="80" height="80" as="geometry" />
        </mxCell>
        <mxCell id="wzGeyBrV-l04SElcSdZf-32" value="" style="edgeStyle=orthogonalEdgeStyle;rounded=0;orthogonalLoop=1;jettySize=auto;html=1;" edge="1" parent="1" source="wzGeyBrV-l04SElcSdZf-23" target="wzGeyBrV-l04SElcSdZf-30">
          <mxGeometry relative="1" as="geometry" />
        </mxCell>
        <mxCell id="wzGeyBrV-l04SElcSdZf-23" value="" style="rhombus;whiteSpace=wrap;html=1;" vertex="1" parent="1">
          <mxGeometry x="320" y="250" width="80" height="80" as="geometry" />
        </mxCell>
        <mxCell id="wzGeyBrV-l04SElcSdZf-27" value="" style="strokeWidth=1;html=1;shape=mxgraph.flowchart.annotation_1;align=left;pointerEvents=1;" vertex="1" parent="1">
          <mxGeometry x="269" y="189" width="50" height="100" as="geometry" />
        </mxCell>
        <mxCell id="wzGeyBrV-l04SElcSdZf-29" value="" style="rounded=0;whiteSpace=wrap;html=1;" vertex="1" parent="1">
          <mxGeometry x="465" y="160" width="120" height="60" as="geometry" />
        </mxCell>
        <mxCell id="wzGeyBrV-l04SElcSdZf-30" value="" style="rounded=0;whiteSpace=wrap;html=1;" vertex="1" parent="1">
          <mxGeometry x="465" y="260" width="120" height="60" as="geometry" />
        </mxCell>
        <mxCell id="wzGeyBrV-l04SElcSdZf-35" value="" style="edgeStyle=orthogonalEdgeStyle;rounded=0;orthogonalLoop=1;jettySize=auto;html=1;" edge="1" parent="1" source="wzGeyBrV-l04SElcSdZf-33" target="wzGeyBrV-l04SElcSdZf-34">
          <mxGeometry relative="1" as="geometry" />
        </mxCell>
        <mxCell id="wzGeyBrV-l04SElcSdZf-33" value="" style="strokeWidth=1;html=1;shape=mxgraph.flowchart.annotation_1;align=left;pointerEvents=1;rotation=-180;" vertex="1" parent="1">
          <mxGeometry x="585" y="189" width="50" height="100" as="geometry" />
        </mxCell>
        <mxCell id="wzGeyBrV-l04SElcSdZf-37" value="" style="edgeStyle=orthogonalEdgeStyle;rounded=0;orthogonalLoop=1;jettySize=auto;html=1;" edge="1" parent="1" source="wzGeyBrV-l04SElcSdZf-34" target="wzGeyBrV-l04SElcSdZf-36">
          <mxGeometry relative="1" as="geometry" />
        </mxCell>
        <mxCell id="wzGeyBrV-l04SElcSdZf-34" value="" style="shape=process;whiteSpace=wrap;html=1;backgroundOutline=1;strokeWidth=1;" vertex="1" parent="1">
          <mxGeometry x="690" y="209" width="120" height="60" as="geometry" />
        </mxCell>
        <mxCell id="wzGeyBrV-l04SElcSdZf-36" value="" style="rounded=0;whiteSpace=wrap;html=1;" vertex="1" parent="1">
          <mxGeometry x="860" y="209" width="120" height="60" as="geometry" />
        </mxCell>
        <mxCell id="wzGeyBrV-l04SElcSdZf-38" value="" style="strokeWidth=1;html=1;shape=mxgraph.flowchart.annotation_1;align=left;pointerEvents=1;" vertex="1" parent="1">
          <mxGeometry x="269" y="410" width="50" height="130" as="geometry" />
        </mxCell>
        <mxCell id="wzGeyBrV-l04SElcSdZf-40" value="" style="rounded=0;whiteSpace=wrap;html=1;" vertex="1" parent="1">
          <mxGeometry x="490" y="382" width="120" height="60" as="geometry" />
        </mxCell>
        <mxCell id="wzGeyBrV-l04SElcSdZf-42" value="" style="strokeWidth=1;html=1;shape=mxgraph.flowchart.annotation_1;align=left;pointerEvents=1;" vertex="1" parent="1">
          <mxGeometry x="490" y="490" width="50" height="100" as="geometry" />
        </mxCell>
        <mxCell id="wzGeyBrV-l04SElcSdZf-45" value="" style="rounded=0;whiteSpace=wrap;html=1;" vertex="1" parent="1">
          <mxGeometry x="540" y="460" width="120" height="60" as="geometry" />
        </mxCell>
        <mxCell id="wzGeyBrV-l04SElcSdZf-46" value="" style="rounded=0;whiteSpace=wrap;html=1;" vertex="1" parent="1">
          <mxGeometry x="540" y="560" width="120" height="60" as="geometry" />
        </mxCell>
        <mxCell id="wzGeyBrV-l04SElcSdZf-49" value="" style="edgeStyle=orthogonalEdgeStyle;rounded=0;orthogonalLoop=1;jettySize=auto;html=1;" edge="1" parent="1" source="wzGeyBrV-l04SElcSdZf-47" target="wzGeyBrV-l04SElcSdZf-48">
          <mxGeometry relative="1" as="geometry" />
        </mxCell>
        <mxCell id="wzGeyBrV-l04SElcSdZf-47" value="" style="strokeWidth=1;html=1;shape=mxgraph.flowchart.annotation_1;align=left;pointerEvents=1;rotation=-180;" vertex="1" parent="1">
          <mxGeometry x="660" y="490" width="50" height="100" as="geometry" />
        </mxCell>
        <mxCell id="wzGeyBrV-l04SElcSdZf-48" value="" style="rounded=0;whiteSpace=wrap;html=1;" vertex="1" parent="1">
          <mxGeometry x="760" y="510" width="120" height="60" as="geometry" />
        </mxCell>
      </root>
    </mxGraphModel>
  </diagram>
</mxfile>
